<svg width="100" height="100" viewBox="0 0 100 100" fill="none" xmlns="http://www.w3.org/2000/svg">
<g clip-path="url(#clip0_82_291)">
<path d="M50 0C54.5898 0 59.0169 0.585938 63.2812 1.75781C67.5456 2.92969 71.5332 4.60612 75.2441 6.78711C78.9551 8.9681 82.3242 11.5723 85.3516 14.5996C88.3789 17.627 90.9831 21.0124 93.1641 24.7559C95.3451 28.4993 97.0215 32.487 98.1934 36.7188C99.3652 40.9505 99.9674 45.3776 100 50C100 53.2227 99.6908 56.3965 99.0723 59.5215C98.4538 62.6465 97.5423 65.7227 96.3379 68.75H81.25V62.5H91.8945C93.1315 58.3984 93.75 54.2318 93.75 50C93.75 45.6706 93.1478 41.5039 91.9434 37.5H74.2188C74.4792 39.5833 74.6745 41.6504 74.8047 43.7012C74.9349 45.752 75 47.8516 75 50H68.75C68.75 47.8841 68.6849 45.8008 68.5547 43.75C68.4245 41.6992 68.2129 39.6159 67.9199 37.5H32.0801C31.8197 39.5833 31.6243 41.6504 31.4941 43.7012C31.3639 45.752 31.2826 47.8516 31.25 50C31.25 52.1159 31.3151 54.1992 31.4453 56.25C31.5755 58.3008 31.7871 60.3841 32.0801 62.5H62.5V68.75H33.1543C33.4147 70.0195 33.7891 71.5169 34.2773 73.2422C34.7656 74.9674 35.3678 76.7578 36.084 78.6133C36.8001 80.4688 37.6139 82.2917 38.5254 84.082C39.4368 85.8724 40.4948 87.5 41.6992 88.9648C42.9036 90.4297 44.1732 91.5853 45.5078 92.4316C46.8424 93.278 48.3398 93.7174 50 93.75C50.9766 93.75 51.9043 93.571 52.7832 93.2129C53.6621 92.8548 54.4922 92.3665 55.2734 91.748C56.0547 91.1296 56.7708 90.4622 57.4219 89.7461C58.0729 89.0299 58.6751 88.2812 59.2285 87.5H62.5V98.3398C60.4492 98.8932 58.3822 99.3001 56.2988 99.5605C54.2155 99.821 52.1159 99.9674 50 100C45.4102 100 40.9831 99.4141 36.7188 98.2422C32.4544 97.0703 28.4668 95.3939 24.7559 93.2129C21.0449 91.0319 17.6758 88.4277 14.6484 85.4004C11.6211 82.373 9.01693 78.9876 6.83594 75.2441C4.65495 71.5006 2.97852 67.5293 1.80664 63.3301C0.634766 59.1309 0.0325521 54.6875 0 50C0 45.4102 0.585938 40.9831 1.75781 36.7188C2.92969 32.4544 4.60612 28.4668 6.78711 24.7559C8.9681 21.0449 11.5723 17.6758 14.5996 14.6484C17.627 11.6211 21.0124 9.01693 24.7559 6.83594C28.4993 4.65495 32.4707 2.97852 36.6699 1.80664C40.8691 0.634766 45.3125 0.0325521 50 0ZM35.6934 8.64258C32.9264 9.58659 30.306 10.8073 27.832 12.3047C25.3581 13.8021 23.0306 15.5111 20.8496 17.4316C18.6686 19.3522 16.7318 21.4681 15.0391 23.7793C13.3464 26.0905 11.8327 28.5807 10.498 31.25H26.7578C27.1159 29.3294 27.5553 27.3763 28.0762 25.3906C28.597 23.4049 29.2318 21.4355 29.9805 19.4824C30.7292 17.5293 31.5755 15.6413 32.5195 13.8184C33.4635 11.9954 34.5215 10.2702 35.6934 8.64258ZM35.6934 91.3574C34.5215 89.7624 33.4635 88.0534 32.5195 86.2305C31.5755 84.4076 30.7454 82.5195 30.0293 80.5664C29.3132 78.6133 28.6784 76.6439 28.125 74.6582C27.5716 72.6725 27.1159 70.7031 26.7578 68.75H10.498C11.7676 71.3867 13.265 73.8607 14.9902 76.1719C16.7155 78.4831 18.6686 80.6152 20.8496 82.5684C23.0306 84.5215 25.3418 86.2305 27.7832 87.6953C30.2246 89.1602 32.8613 90.3809 35.6934 91.3574ZM25.7812 62.5C25.5208 60.4167 25.3255 58.3496 25.1953 56.2988C25.0651 54.248 25 52.1484 25 50C25 47.8841 25.0651 45.8008 25.1953 43.75C25.3255 41.6992 25.5208 39.6159 25.7812 37.5H8.05664C6.85221 41.5039 6.25 45.6706 6.25 50C6.25 54.3294 6.85221 58.4961 8.05664 62.5H25.7812ZM66.8457 31.25C66.5853 29.9805 66.2109 28.4831 65.7227 26.7578C65.2344 25.0326 64.6322 23.2422 63.916 21.3867C63.1999 19.5312 62.3861 17.7083 61.4746 15.918C60.5632 14.1276 59.5052 12.5 58.3008 11.0352C57.0964 9.57031 55.8268 8.41471 54.4922 7.56836C53.1576 6.72201 51.6602 6.28255 50 6.25C48.4049 6.25 46.9238 6.68945 45.5566 7.56836C44.1895 8.44727 42.9036 9.60286 41.6992 11.0352C40.4948 12.4674 39.4531 14.0788 38.5742 15.8691C37.6953 17.6595 36.8652 19.4987 36.084 21.3867C35.3027 23.2747 34.7005 25.0651 34.2773 26.7578C33.8542 28.4505 33.4798 29.9479 33.1543 31.25H66.8457ZM89.502 31.25C88.2324 28.6133 86.735 26.1393 85.0098 23.8281C83.2845 21.5169 81.3314 19.3848 79.1504 17.4316C76.9694 15.4785 74.6582 13.7695 72.2168 12.3047C69.7754 10.8398 67.1387 9.61914 64.3066 8.64258C65.4785 10.2376 66.5365 11.9466 67.4805 13.7695C68.4245 15.5924 69.2546 17.4805 69.9707 19.4336C70.6869 21.3867 71.3216 23.3561 71.875 25.3418C72.4284 27.3275 72.8841 29.2969 73.2422 31.25H89.502ZM75 75H93.75V81.25H75V100H68.75V81.25H50V75H68.75V56.25H75V75Z" fill="currentColor"/>
</g>
<defs>
<clipPath id="clip0_82_291">
<rect width="100" height="100" fill="white"/>
</clipPath>
</defs>
</svg>
