<svg width="100" height="100" viewBox="0 0 100 100" fill="none" xmlns="http://www.w3.org/2000/svg">
<path d="M28.125 21.875C17.8125 21.875 9.375 30.3125 9.375 40.625C9.375 46.825 12.4281 52.3438 17.0906 55.7625C8.85 59.85 3.125 68.325 3.125 78.125H9.375C9.375 67.7375 17.7375 59.375 28.125 59.375C38.5125 59.375 46.875 67.7375 46.875 78.125H53.125C53.125 67.7375 61.4875 59.375 71.875 59.375C82.2625 59.375 90.625 67.7375 90.625 78.125H96.875C96.875 68.3219 91.15 59.85 82.9094 55.7625C85.2964 54.025 87.2394 51.7483 88.5802 49.1178C89.9209 46.4874 90.6216 43.5775 90.625 40.625C90.625 30.3125 82.1875 21.875 71.875 21.875C61.5625 21.875 53.125 30.3125 53.125 40.625C53.125 46.825 56.1781 52.3438 60.8406 55.7625C56.2744 58.0068 52.495 61.5814 50 66.0156C47.505 61.5814 43.7256 58.0068 39.1594 55.7625C41.5464 54.025 43.4894 51.7483 44.8302 49.1178C46.1709 46.4874 46.8716 43.5775 46.875 40.625C46.875 30.3125 38.4375 21.875 28.125 21.875ZM28.125 28.125C35.0719 28.125 40.625 33.6781 40.625 40.625C40.625 47.5719 35.0719 53.125 28.125 53.125C21.1781 53.125 15.625 47.5719 15.625 40.625C15.625 33.6781 21.1781 28.125 28.125 28.125ZM71.875 28.125C78.8219 28.125 84.375 33.6781 84.375 40.625C84.375 47.5719 78.8219 53.125 71.875 53.125C64.9281 53.125 59.375 47.5719 59.375 40.625C59.375 33.6781 64.9281 28.125 71.875 28.125Z" fill="currentColor"/>
</svg>
