<svg width="100" height="100" viewBox="0 0 100 100" fill="none" xmlns="http://www.w3.org/2000/svg">
<path fill-rule="evenodd" clip-rule="evenodd" d="M35.4329 65.4166C30.5496 69.9583 24.6246 73.2208 16.6287 73.125C15.7999 73.115 15.009 72.7763 14.43 72.1832C13.851 71.5901 13.5313 70.7913 13.5412 69.9625C13.5512 69.1337 13.89 68.3428 14.483 67.7637C15.0761 67.1847 15.8749 66.865 16.7037 66.875C22.6829 66.95 27.1287 64.6041 31.1746 60.8375C34.4162 57.8208 37.2204 54.0875 40.2871 50.0041C41.2037 48.7764 42.1537 47.5222 43.1371 46.2416C47.2787 40.875 52.0496 35.325 58.5121 31.6C65.0829 27.8125 73.1579 26.0458 83.6662 27.75C84.0809 27.8046 84.4803 27.9419 84.841 28.1537C85.2016 28.3655 85.516 28.6476 85.7656 28.9831C86.0152 29.3187 86.1949 29.701 86.2941 30.1072C86.3932 30.5135 86.4099 30.9356 86.3429 31.3484C86.276 31.7613 86.1268 32.1565 85.9044 32.5106C85.6819 32.8647 85.3906 33.1706 85.0477 33.4101C84.7048 33.6496 84.3174 33.8178 83.9083 33.9048C83.4993 33.9919 83.0769 33.9959 82.6662 33.9166C73.4579 32.4291 66.8579 34.0041 61.6287 37.0166C56.2954 40.0916 52.1454 44.7958 48.0871 50.0583C47.2343 51.1694 46.3732 52.3055 45.5037 53.4666C42.3787 57.6333 39.1246 61.9833 35.4329 65.4166Z" fill="currentColor"/>
<path fill-rule="evenodd" clip-rule="evenodd" d="M66.8323 14.4543C67.4187 13.8697 68.2133 13.5417 69.0415 13.5425C69.8696 13.5433 70.6635 13.8727 71.2489 14.4585L85.5448 28.7918C86.13 29.3778 86.4587 30.172 86.4587 31.0002C86.4587 31.8283 86.13 32.6225 85.5448 33.2085L71.2448 47.5418C70.6591 48.1286 69.8643 48.4587 69.0352 48.4595C68.2061 48.4603 67.4107 48.1317 66.8239 47.546C66.2371 46.9603 65.907 46.1655 65.9063 45.3364C65.9055 44.5074 66.2341 43.7119 66.8198 43.1252L78.9198 31.0002L66.8239 18.8752C66.5338 18.5847 66.3038 18.2399 66.1469 17.8604C65.9901 17.481 65.9096 17.0744 65.91 16.6639C65.9104 16.2533 65.9917 15.8469 66.1492 15.4677C66.3067 15.0886 66.5374 14.7443 66.8281 14.4543M66.8948 52.7252C67.4982 52.1573 68.3024 51.8523 69.1307 51.8773C69.9589 51.9023 70.7433 52.2552 71.3114 52.8585L85.4364 67.8585C86.0054 68.4608 86.3118 69.2645 86.2884 70.0927C86.2649 70.9209 85.9135 71.7059 85.3114 72.2752L71.1823 85.6085C70.5794 86.1776 69.7752 86.4839 68.9466 86.4601C68.1179 86.4363 67.3326 86.0842 66.7635 85.4814C66.1944 84.8786 65.8881 84.0744 65.9119 83.2457C65.9357 82.417 66.2878 81.6318 66.8906 81.0626L78.7489 69.871L66.7614 57.1418C66.1935 56.5384 65.8886 55.7341 65.9136 54.9059C65.9386 54.0776 66.2915 53.2932 66.8948 52.7252Z" fill="currentColor"/>
<path fill-rule="evenodd" clip-rule="evenodd" d="M31.3746 39.1503C27.3912 35.3753 22.8996 33.0128 16.7246 33.1253C16.3142 33.1324 15.9064 33.0586 15.5245 32.9082C15.1427 32.7577 14.7942 32.5335 14.499 32.2483C13.9028 31.6724 13.5598 30.8833 13.5454 30.0545C13.5383 29.6441 13.6121 29.2363 13.7625 28.8545C13.913 28.4726 14.1372 28.1241 14.4224 27.8289C14.9983 27.2327 15.7874 26.8897 16.6162 26.8753C24.7912 26.7295 30.7954 29.992 35.6787 34.6086C39.5162 38.242 42.8037 42.8711 45.9287 47.2753C46.6371 48.2753 47.3398 49.26 48.0371 50.2295C51.9371 55.6045 55.8537 60.4003 60.9287 63.5628C65.8746 66.6461 72.1454 68.3128 81.0204 66.9128C81.8392 66.7841 82.6757 66.9859 83.3458 67.4739C84.0158 67.9619 84.4646 68.696 84.5933 69.5149C84.722 70.3338 84.5202 71.1702 84.0322 71.8403C83.5443 72.5103 82.8101 72.9591 81.9912 73.0878C71.7454 74.7003 63.9371 72.8045 57.6246 68.867C51.4371 65.0128 46.9204 59.3378 42.9787 53.8961C42.1871 52.8045 41.419 51.7309 40.6746 50.6753C37.5704 46.3086 34.7329 42.317 31.3829 39.1503" fill="currentColor"/>
</svg>
