<svg xmlns="http://www.w3.org/2000/svg" xmlns:xlink="http://www.w3.org/1999/xlink"><defs>
<clipPath id="clip0_82_291">
<rect width="100" height="100" fill="white"/>
</clipPath>
</defs><symbol id="call" viewBox="0 0 100 100"><g fill="none">
<path fill-rule="evenodd" clip-rule="evenodd" d="M50.0007 11.4585C39.7788 11.4585 29.9756 15.5191 22.7476 22.7471C15.5197 29.9751 11.459 39.7783 11.459 50.0002C11.459 56.171 12.909 61.996 15.4799 67.1585C16.5132 69.2335 16.909 71.7085 16.259 74.146L13.7757 83.4168C13.6714 83.8052 13.6712 84.2143 13.7751 84.6028C13.8789 84.9913 14.0832 85.3456 14.3673 85.6302C14.6515 85.9148 15.0056 86.1196 15.3939 86.224C15.7823 86.3285 16.1913 86.3289 16.5799 86.2252L25.859 83.7418C28.2039 83.1405 30.6877 83.4176 32.8424 84.521C38.1719 87.1756 44.0466 88.5523 50.0007 88.5418C60.2226 88.5418 70.0258 84.4812 77.2538 77.2532C84.4817 70.0253 88.5424 60.2221 88.5424 50.0002C88.5424 39.7783 84.4817 29.9751 77.2538 22.7471C70.0258 15.5191 60.2226 11.4585 50.0007 11.4585ZM5.20903 50.0002C5.20903 25.2627 25.2632 5.2085 50.0007 5.2085C74.7382 5.2085 94.7924 25.2627 94.7924 50.0002C94.7924 74.7377 74.7382 94.7918 50.0007 94.7918C42.8424 94.7918 36.0674 93.1085 30.0549 90.1168C29.2612 89.7006 28.3448 89.5824 27.4715 89.7835L18.1965 92.2627C11.8465 93.9627 6.0382 88.1543 7.7382 81.8043L10.2215 72.5293C10.4227 71.6561 10.3044 70.7396 9.88819 69.946C6.80129 63.7508 5.19928 56.9219 5.20903 50.0002ZM50.0007 30.2085C50.8295 30.2085 51.6243 30.5377 52.2104 31.1238C52.7965 31.7098 53.1257 32.5047 53.1257 33.3335V66.6668C53.1257 67.4956 52.7965 68.2905 52.2104 68.8765C51.6243 69.4626 50.8295 69.7918 50.0007 69.7918C49.1719 69.7918 48.377 69.4626 47.791 68.8765C47.2049 68.2905 46.8757 67.4956 46.8757 66.6668V33.3335C46.8757 32.5047 47.2049 31.7098 47.791 31.1238C48.377 30.5377 49.1719 30.2085 50.0007 30.2085ZM33.334 38.5418C34.1628 38.5418 34.9577 38.8711 35.5437 39.4571C36.1298 40.0432 36.459 40.838 36.459 41.6668V58.3335C36.459 59.1623 36.1298 59.9572 35.5437 60.5432C34.9577 61.1293 34.1628 61.4585 33.334 61.4585C32.5052 61.4585 31.7104 61.1293 31.1243 60.5432C30.5383 59.9572 30.209 59.1623 30.209 58.3335V41.6668C30.209 40.838 30.5383 40.0432 31.1243 39.4571C31.7104 38.8711 32.5052 38.5418 33.334 38.5418ZM66.6674 38.5418C67.4962 38.5418 68.291 38.8711 68.8771 39.4571C69.4631 40.0432 69.7924 40.838 69.7924 41.6668V58.3335C69.7924 59.1623 69.4631 59.9572 68.8771 60.5432C68.291 61.1293 67.4962 61.4585 66.6674 61.4585C65.8386 61.4585 65.0437 61.1293 64.4577 60.5432C63.8716 59.9572 63.5424 59.1623 63.5424 58.3335V41.6668C63.5424 40.838 63.8716 40.0432 64.4577 39.4571C65.0437 38.8711 65.8386 38.5418 66.6674 38.5418Z" fill="currentColor"/>
</g></symbol><symbol id="card-arrow" viewBox="0 0 40 40"><g fill="none">
<rect width="40" height="40" fill="white"/>
<path d="M29.4825 18.7501H6.25C5.91848 18.7501 5.60054 18.8818 5.36612 19.1162C5.1317 19.3507 5 19.6686 5 20.0001C5 20.3316 5.1317 20.6496 5.36612 20.884C5.60054 21.1184 5.91848 21.2501 6.25 21.2501H29.4825L20.365 30.3651C20.1303 30.5998 19.9984 30.9182 19.9984 31.2501C19.9984 31.5821 20.1303 31.9004 20.365 32.1351C20.5997 32.3698 20.9181 32.5017 21.25 32.5017C21.5819 32.5017 21.9003 32.3698 22.135 32.1351L33.385 20.8851C33.5014 20.769 33.5938 20.6311 33.6568 20.4792C33.7198 20.3273 33.7522 20.1645 33.7522 20.0001C33.7522 19.8357 33.7198 19.6729 33.6568 19.521C33.5938 19.3692 33.5014 19.2312 33.385 19.1151L22.135 7.86511C21.9003 7.6304 21.5819 7.49854 21.25 7.49854C20.9181 7.49854 20.5997 7.6304 20.365 7.86511C20.1303 8.09983 19.9984 8.41817 19.9984 8.75011C19.9984 9.08205 20.1303 9.4004 20.365 9.63511L29.4825 18.7501Z" fill="#151515"/>
</g></symbol><symbol id="ecom" viewBox="0 0 100 100"><g fill="none">
<g clip-path="url(#clip0_82_291)">
<path d="M50 0C54.5898 0 59.0169 0.585938 63.2812 1.75781C67.5456 2.92969 71.5332 4.60612 75.2441 6.78711C78.9551 8.9681 82.3242 11.5723 85.3516 14.5996C88.3789 17.627 90.9831 21.0124 93.1641 24.7559C95.3451 28.4993 97.0215 32.487 98.1934 36.7188C99.3652 40.9505 99.9674 45.3776 100 50C100 53.2227 99.6908 56.3965 99.0723 59.5215C98.4538 62.6465 97.5423 65.7227 96.3379 68.75H81.25V62.5H91.8945C93.1315 58.3984 93.75 54.2318 93.75 50C93.75 45.6706 93.1478 41.5039 91.9434 37.5H74.2188C74.4792 39.5833 74.6745 41.6504 74.8047 43.7012C74.9349 45.752 75 47.8516 75 50H68.75C68.75 47.8841 68.6849 45.8008 68.5547 43.75C68.4245 41.6992 68.2129 39.6159 67.9199 37.5H32.0801C31.8197 39.5833 31.6243 41.6504 31.4941 43.7012C31.3639 45.752 31.2826 47.8516 31.25 50C31.25 52.1159 31.3151 54.1992 31.4453 56.25C31.5755 58.3008 31.7871 60.3841 32.0801 62.5H62.5V68.75H33.1543C33.4147 70.0195 33.7891 71.5169 34.2773 73.2422C34.7656 74.9674 35.3678 76.7578 36.084 78.6133C36.8001 80.4688 37.6139 82.2917 38.5254 84.082C39.4368 85.8724 40.4948 87.5 41.6992 88.9648C42.9036 90.4297 44.1732 91.5853 45.5078 92.4316C46.8424 93.278 48.3398 93.7174 50 93.75C50.9766 93.75 51.9043 93.571 52.7832 93.2129C53.6621 92.8548 54.4922 92.3665 55.2734 91.748C56.0547 91.1296 56.7708 90.4622 57.4219 89.7461C58.0729 89.0299 58.6751 88.2812 59.2285 87.5H62.5V98.3398C60.4492 98.8932 58.3822 99.3001 56.2988 99.5605C54.2155 99.821 52.1159 99.9674 50 100C45.4102 100 40.9831 99.4141 36.7188 98.2422C32.4544 97.0703 28.4668 95.3939 24.7559 93.2129C21.0449 91.0319 17.6758 88.4277 14.6484 85.4004C11.6211 82.373 9.01693 78.9876 6.83594 75.2441C4.65495 71.5006 2.97852 67.5293 1.80664 63.3301C0.634766 59.1309 0.0325521 54.6875 0 50C0 45.4102 0.585938 40.9831 1.75781 36.7188C2.92969 32.4544 4.60612 28.4668 6.78711 24.7559C8.9681 21.0449 11.5723 17.6758 14.5996 14.6484C17.627 11.6211 21.0124 9.01693 24.7559 6.83594C28.4993 4.65495 32.4707 2.97852 36.6699 1.80664C40.8691 0.634766 45.3125 0.0325521 50 0ZM35.6934 8.64258C32.9264 9.58659 30.306 10.8073 27.832 12.3047C25.3581 13.8021 23.0306 15.5111 20.8496 17.4316C18.6686 19.3522 16.7318 21.4681 15.0391 23.7793C13.3464 26.0905 11.8327 28.5807 10.498 31.25H26.7578C27.1159 29.3294 27.5553 27.3763 28.0762 25.3906C28.597 23.4049 29.2318 21.4355 29.9805 19.4824C30.7292 17.5293 31.5755 15.6413 32.5195 13.8184C33.4635 11.9954 34.5215 10.2702 35.6934 8.64258ZM35.6934 91.3574C34.5215 89.7624 33.4635 88.0534 32.5195 86.2305C31.5755 84.4076 30.7454 82.5195 30.0293 80.5664C29.3132 78.6133 28.6784 76.6439 28.125 74.6582C27.5716 72.6725 27.1159 70.7031 26.7578 68.75H10.498C11.7676 71.3867 13.265 73.8607 14.9902 76.1719C16.7155 78.4831 18.6686 80.6152 20.8496 82.5684C23.0306 84.5215 25.3418 86.2305 27.7832 87.6953C30.2246 89.1602 32.8613 90.3809 35.6934 91.3574ZM25.7812 62.5C25.5208 60.4167 25.3255 58.3496 25.1953 56.2988C25.0651 54.248 25 52.1484 25 50C25 47.8841 25.0651 45.8008 25.1953 43.75C25.3255 41.6992 25.5208 39.6159 25.7812 37.5H8.05664C6.85221 41.5039 6.25 45.6706 6.25 50C6.25 54.3294 6.85221 58.4961 8.05664 62.5H25.7812ZM66.8457 31.25C66.5853 29.9805 66.2109 28.4831 65.7227 26.7578C65.2344 25.0326 64.6322 23.2422 63.916 21.3867C63.1999 19.5312 62.3861 17.7083 61.4746 15.918C60.5632 14.1276 59.5052 12.5 58.3008 11.0352C57.0964 9.57031 55.8268 8.41471 54.4922 7.56836C53.1576 6.72201 51.6602 6.28255 50 6.25C48.4049 6.25 46.9238 6.68945 45.5566 7.56836C44.1895 8.44727 42.9036 9.60286 41.6992 11.0352C40.4948 12.4674 39.4531 14.0788 38.5742 15.8691C37.6953 17.6595 36.8652 19.4987 36.084 21.3867C35.3027 23.2747 34.7005 25.0651 34.2773 26.7578C33.8542 28.4505 33.4798 29.9479 33.1543 31.25H66.8457ZM89.502 31.25C88.2324 28.6133 86.735 26.1393 85.0098 23.8281C83.2845 21.5169 81.3314 19.3848 79.1504 17.4316C76.9694 15.4785 74.6582 13.7695 72.2168 12.3047C69.7754 10.8398 67.1387 9.61914 64.3066 8.64258C65.4785 10.2376 66.5365 11.9466 67.4805 13.7695C68.4245 15.5924 69.2546 17.4805 69.9707 19.4336C70.6869 21.3867 71.3216 23.3561 71.875 25.3418C72.4284 27.3275 72.8841 29.2969 73.2422 31.25H89.502ZM75 75H93.75V81.25H75V100H68.75V81.25H50V75H68.75V56.25H75V75Z" fill="currentColor"/>
</g>

</g></symbol><symbol id="icon-close" viewBox="0 0 24 24"><g fill="none">
<path fill-rule="evenodd" clip-rule="evenodd" d="M18.7071 5.29289C19.0976 5.68342 19.0976 6.31658 18.7071 6.70711L6.70711 18.7071C6.31658 19.0976 5.68342 19.0976 5.29289 18.7071C4.90237 18.3166 4.90237 17.6834 5.29289 17.2929L17.2929 5.29289C17.6834 4.90237 18.3166 4.90237 18.7071 5.29289Z" fill="currentColor"/>
<path fill-rule="evenodd" clip-rule="evenodd" d="M5.29289 5.29289C5.68342 4.90237 6.31658 4.90237 6.70711 5.29289L18.7071 17.2929C19.0976 17.6834 19.0976 18.3166 18.7071 18.7071C18.3166 19.0976 17.6834 19.0976 17.2929 18.7071L5.29289 6.70711C4.90237 6.31658 4.90237 5.68342 5.29289 5.29289Z" fill="currentColor"/>
</g></symbol><symbol id="mall" viewBox="0 0 100 100"><g fill="none">
<path d="M28.125 21.875C17.8125 21.875 9.375 30.3125 9.375 40.625C9.375 46.825 12.4281 52.3438 17.0906 55.7625C8.85 59.85 3.125 68.325 3.125 78.125H9.375C9.375 67.7375 17.7375 59.375 28.125 59.375C38.5125 59.375 46.875 67.7375 46.875 78.125H53.125C53.125 67.7375 61.4875 59.375 71.875 59.375C82.2625 59.375 90.625 67.7375 90.625 78.125H96.875C96.875 68.3219 91.15 59.85 82.9094 55.7625C85.2964 54.025 87.2394 51.7483 88.5802 49.1178C89.9209 46.4874 90.6216 43.5775 90.625 40.625C90.625 30.3125 82.1875 21.875 71.875 21.875C61.5625 21.875 53.125 30.3125 53.125 40.625C53.125 46.825 56.1781 52.3438 60.8406 55.7625C56.2744 58.0068 52.495 61.5814 50 66.0156C47.505 61.5814 43.7256 58.0068 39.1594 55.7625C41.5464 54.025 43.4894 51.7483 44.8302 49.1178C46.1709 46.4874 46.8716 43.5775 46.875 40.625C46.875 30.3125 38.4375 21.875 28.125 21.875ZM28.125 28.125C35.0719 28.125 40.625 33.6781 40.625 40.625C40.625 47.5719 35.0719 53.125 28.125 53.125C21.1781 53.125 15.625 47.5719 15.625 40.625C15.625 33.6781 21.1781 28.125 28.125 28.125ZM71.875 28.125C78.8219 28.125 84.375 33.6781 84.375 40.625C84.375 47.5719 78.8219 53.125 71.875 53.125C64.9281 53.125 59.375 47.5719 59.375 40.625C59.375 33.6781 64.9281 28.125 71.875 28.125Z" fill="currentColor"/>
</g></symbol><symbol id="mix" viewBox="0 0 100 100"><g fill="none">
<path fill-rule="evenodd" clip-rule="evenodd" d="M35.4329 65.4166C30.5496 69.9583 24.6246 73.2208 16.6287 73.125C15.7999 73.115 15.009 72.7763 14.43 72.1832C13.851 71.5901 13.5313 70.7913 13.5412 69.9625C13.5512 69.1337 13.89 68.3428 14.483 67.7637C15.0761 67.1847 15.8749 66.865 16.7037 66.875C22.6829 66.95 27.1287 64.6041 31.1746 60.8375C34.4162 57.8208 37.2204 54.0875 40.2871 50.0041C41.2037 48.7764 42.1537 47.5222 43.1371 46.2416C47.2787 40.875 52.0496 35.325 58.5121 31.6C65.0829 27.8125 73.1579 26.0458 83.6662 27.75C84.0809 27.8046 84.4803 27.9419 84.841 28.1537C85.2016 28.3655 85.516 28.6476 85.7656 28.9831C86.0152 29.3187 86.1949 29.701 86.2941 30.1072C86.3932 30.5135 86.4099 30.9356 86.3429 31.3484C86.276 31.7613 86.1268 32.1565 85.9044 32.5106C85.6819 32.8647 85.3906 33.1706 85.0477 33.4101C84.7048 33.6496 84.3174 33.8178 83.9083 33.9048C83.4993 33.9919 83.0769 33.9959 82.6662 33.9166C73.4579 32.4291 66.8579 34.0041 61.6287 37.0166C56.2954 40.0916 52.1454 44.7958 48.0871 50.0583C47.2343 51.1694 46.3732 52.3055 45.5037 53.4666C42.3787 57.6333 39.1246 61.9833 35.4329 65.4166Z" fill="currentColor"/>
<path fill-rule="evenodd" clip-rule="evenodd" d="M66.8323 14.4543C67.4187 13.8697 68.2133 13.5417 69.0415 13.5425C69.8696 13.5433 70.6635 13.8727 71.2489 14.4585L85.5448 28.7918C86.13 29.3778 86.4587 30.172 86.4587 31.0002C86.4587 31.8283 86.13 32.6225 85.5448 33.2085L71.2448 47.5418C70.6591 48.1286 69.8643 48.4587 69.0352 48.4595C68.2061 48.4603 67.4107 48.1317 66.8239 47.546C66.2371 46.9603 65.907 46.1655 65.9063 45.3364C65.9055 44.5074 66.2341 43.7119 66.8198 43.1252L78.9198 31.0002L66.8239 18.8752C66.5338 18.5847 66.3038 18.2399 66.1469 17.8604C65.9901 17.481 65.9096 17.0744 65.91 16.6639C65.9104 16.2533 65.9917 15.8469 66.1492 15.4677C66.3067 15.0886 66.5374 14.7443 66.8281 14.4543M66.8948 52.7252C67.4982 52.1573 68.3024 51.8523 69.1307 51.8773C69.9589 51.9023 70.7433 52.2552 71.3114 52.8585L85.4364 67.8585C86.0054 68.4608 86.3118 69.2645 86.2884 70.0927C86.2649 70.9209 85.9135 71.7059 85.3114 72.2752L71.1823 85.6085C70.5794 86.1776 69.7752 86.4839 68.9466 86.4601C68.1179 86.4363 67.3326 86.0842 66.7635 85.4814C66.1944 84.8786 65.8881 84.0744 65.9119 83.2457C65.9357 82.417 66.2878 81.6318 66.8906 81.0626L78.7489 69.871L66.7614 57.1418C66.1935 56.5384 65.8886 55.7341 65.9136 54.9059C65.9386 54.0776 66.2915 53.2932 66.8948 52.7252Z" fill="currentColor"/>
<path fill-rule="evenodd" clip-rule="evenodd" d="M31.3746 39.1503C27.3912 35.3753 22.8996 33.0128 16.7246 33.1253C16.3142 33.1324 15.9064 33.0586 15.5245 32.9082C15.1427 32.7577 14.7942 32.5335 14.499 32.2483C13.9028 31.6724 13.5598 30.8833 13.5454 30.0545C13.5383 29.6441 13.6121 29.2363 13.7625 28.8545C13.913 28.4726 14.1372 28.1241 14.4224 27.8289C14.9983 27.2327 15.7874 26.8897 16.6162 26.8753C24.7912 26.7295 30.7954 29.992 35.6787 34.6086C39.5162 38.242 42.8037 42.8711 45.9287 47.2753C46.6371 48.2753 47.3398 49.26 48.0371 50.2295C51.9371 55.6045 55.8537 60.4003 60.9287 63.5628C65.8746 66.6461 72.1454 68.3128 81.0204 66.9128C81.8392 66.7841 82.6757 66.9859 83.3458 67.4739C84.0158 67.9619 84.4646 68.696 84.5933 69.5149C84.722 70.3338 84.5202 71.1702 84.0322 71.8403C83.5443 72.5103 82.8101 72.9591 81.9912 73.0878C71.7454 74.7003 63.9371 72.8045 57.6246 68.867C51.4371 65.0128 46.9204 59.3378 42.9787 53.8961C42.1871 52.8045 41.419 51.7309 40.6746 50.6753C37.5704 46.3086 34.7329 42.317 31.3829 39.1503" fill="currentColor"/>
</g></symbol></svg>