<svg width="1180" height="414" viewBox="0 0 1180 414" fill="none" xmlns="http://www.w3.org/2000/svg">
<rect x="176.854" y="0.361328" width="0.982515" height="413.639" fill="#4B4B4B"/>
<rect x="176.854" y="0.361328" width="0.982515" height="413.639" fill="#4B4B4B"/>
<rect x="235.803" y="0.361328" width="0.982515" height="413.639" fill="#4B4B4B"/>
<rect x="294.754" y="0.361328" width="0.982515" height="413.639" fill="#4B4B4B"/>
<rect y="0.361328" width="0.982515" height="413.639" fill="#4B4B4B"/>
<rect x="58.9512" y="0.361328" width="0.982515" height="413.639" fill="#4B4B4B"/>
<rect x="117.902" y="0.361328" width="0.982515" height="413.639" fill="#4B4B4B"/>
<rect x="353.705" y="0.361328" width="0.982515" height="413.639" fill="#4B4B4B"/>
<rect x="412.656" y="0.361328" width="0.982515" height="413.639" fill="#4B4B4B"/>
<rect x="471.607" y="0.361328" width="0.982515" height="413.639" fill="#4B4B4B"/>
<rect x="530.559" y="0.361328" width="0.982515" height="413.639" fill="#4B4B4B"/>
<rect x="589.508" y="0.361328" width="0.982515" height="413.639" fill="#4B4B4B"/>
<rect x="648.459" y="0.361328" width="0.982515" height="413.639" fill="#4B4B4B"/>
<rect x="707.41" y="0.361328" width="0.982515" height="413.639" fill="#4B4B4B"/>
<rect x="766.361" y="0.361328" width="0.982515" height="413.639" fill="#4B4B4B"/>
<rect x="825.312" y="0.361328" width="0.982515" height="413.639" fill="#4B4B4B"/>
<rect x="884.264" y="0.361328" width="0.982515" height="413.639" fill="#4B4B4B"/>
<rect x="943.215" y="0.361328" width="0.982515" height="413.639" fill="#4B4B4B"/>
<rect x="1002.16" y="0.361328" width="0.982515" height="413.639" fill="#4B4B4B"/>
<rect x="1061.12" y="0.361328" width="0.982515" height="413.639" fill="#4B4B4B"/>
<rect x="1120.07" y="0.361328" width="0.982515" height="413.639" fill="#4B4B4B"/>
<rect x="1179.02" y="0.361328" width="0.982515" height="413.639" fill="#4B4B4B"/>
<rect x="0.982422" y="414" width="0.982515" height="1179.02" transform="rotate(-90 0.982422 414)" fill="#4B4B4B"/>
<rect x="0.982422" y="355.049" width="0.982515" height="1179.02" transform="rotate(-90 0.982422 355.049)" fill="#4B4B4B"/>
<rect x="0.982422" y="296.098" width="0.982515" height="1179.02" transform="rotate(-90 0.982422 296.098)" fill="#4B4B4B"/>
<rect x="0.982422" y="237.147" width="0.982515" height="1179.02" transform="rotate(-90 0.982422 237.147)" fill="#4B4B4B"/>
<rect x="0.982422" y="178.196" width="0.982515" height="1179.02" transform="rotate(-90 0.982422 178.196)" fill="#4B4B4B"/>
<rect x="0.982422" y="119.246" width="0.982515" height="1179.02" transform="rotate(-90 0.982422 119.246)" fill="#4B4B4B"/>
<rect x="0.982422" y="60.2949" width="0.982515" height="1179.02" transform="rotate(-90 0.982422 60.2949)" fill="#4B4B4B"/>
<rect x="0.982422" y="1.34375" width="0.982515" height="1179.02" transform="rotate(-90 0.982422 1.34375)" fill="#4B4B4B"/>
</svg>
