<svg width="168" height="44" viewBox="0 0 168 44" fill="none" xmlns="http://www.w3.org/2000/svg">
<path d="M12.808 30.064C12.1253 30.064 11.624 29.9787 11.304 29.808C11.0053 29.616 10.856 29.3493 10.856 29.008V14.256C10.856 13.9147 11.0053 13.6587 11.304 13.488C11.624 13.296 12.1253 13.2 12.808 13.2H13.704C14.3867 13.2 14.8773 13.296 15.176 13.488C15.496 13.6587 15.656 13.9147 15.656 14.256V29.008C15.656 29.3493 15.496 29.616 15.176 29.808C14.8773 29.9787 14.3867 30.064 13.704 30.064H12.808ZM13.256 11.632C12.424 11.632 11.816 11.5467 11.432 11.376C11.0693 11.2053 10.888 10.9493 10.888 10.608V8.112C10.888 7.77067 11.0693 7.51467 11.432 7.344C11.816 7.17333 12.424 7.088 13.256 7.088C14.088 7.088 14.6853 7.17333 15.048 7.344C15.432 7.51467 15.624 7.77067 15.624 8.112V10.608C15.624 10.9493 15.432 11.2053 15.048 11.376C14.6853 11.5467 14.088 11.632 13.256 11.632ZM21.2768 30.064C20.5941 30.064 20.0928 29.9787 19.7728 29.808C19.4741 29.616 19.3248 29.3493 19.3248 29.008V18.832C19.3248 17.8933 19.2928 17.1467 19.2288 16.592C19.1861 16.016 19.1328 15.568 19.0688 15.248C19.0261 14.928 19.0048 14.6507 19.0048 14.416C19.0048 14.1813 19.1541 13.9893 19.4528 13.84C19.7728 13.6907 20.1461 13.584 20.5728 13.52C21.0208 13.4347 21.4368 13.3813 21.8208 13.36C22.2261 13.3173 22.5141 13.296 22.6848 13.296C22.9408 13.296 23.1328 13.36 23.2608 13.488C23.3888 13.5947 23.4954 13.7973 23.5808 14.096C23.6874 14.3947 23.7941 14.8427 23.9008 15.44C24.2208 15.0347 24.6154 14.6507 25.0848 14.288C25.5754 13.904 26.1194 13.5947 26.7168 13.36C27.3354 13.1253 27.9861 13.008 28.6688 13.008C29.7568 13.008 30.6528 13.2 31.3568 13.584C32.0821 13.9467 32.6154 14.512 32.9568 15.28C33.2981 16.0267 33.4688 16.9973 33.4688 18.192V29.008C33.4688 29.3493 33.3088 29.616 32.9888 29.808C32.6901 29.9787 32.1994 30.064 31.5168 30.064H30.6208C29.9381 30.064 29.4368 29.9787 29.1168 29.808C28.8181 29.616 28.6688 29.3493 28.6688 29.008V18.896C28.6688 18.2773 28.5301 17.7973 28.2528 17.456C27.9754 17.0933 27.4954 16.912 26.8128 16.912C26.4714 16.912 26.1194 16.9973 25.7568 17.168C25.4154 17.3173 25.0954 17.5307 24.7968 17.808C24.5194 18.0853 24.2954 18.4053 24.1248 18.768V29.008C24.1248 29.3493 23.9648 29.616 23.6448 29.808C23.3461 29.9787 22.8554 30.064 22.1727 30.064H21.2768Z" fill="#E2FF32"/>
<rect x="16" y="40" width="4" height="4" rx="2" fill="#E2FF32"/>
<rect x="24" y="40" width="4" height="4" rx="2" fill="#E2FF32"/>
<rect x="8" y="40.4639" width="4" height="4" rx="2" transform="rotate(-60 8 40.4639)" fill="#E2FF32"/>
<rect x="2" y="35.4639" width="4" height="4" rx="2" transform="rotate(-60 2 35.4639)" fill="#E2FF32"/>
<rect width="4" height="4" rx="2" transform="matrix(-0.5 -0.866025 -0.866025 0.5 36.4648 40.4639)" fill="#E2FF32"/>
<rect y="10" width="4" height="4" rx="2" fill="#E2FF32"/>
<rect y="18" width="4" height="4" rx="2" fill="#E2FF32"/>
<rect y="26" width="4" height="4" rx="2" fill="#E2FF32"/>
<rect width="4" height="4" rx="2" transform="matrix(-0.5 -0.866025 -0.866025 0.5 42.4648 35.4639)" fill="#E2FF32"/>
<rect width="4" height="4" rx="2" transform="matrix(-1 0 0 1 44.4648 10)" fill="#E2FF32"/>
<rect width="4" height="4" rx="2" transform="matrix(-1 0 0 1 44.4648 18)" fill="#E2FF32"/>
<rect width="4" height="4" rx="2" transform="matrix(-1 0 0 1 44.4648 26)" fill="#E2FF32"/>
<path d="M56.4648 33.564C55.8035 33.564 55.3128 33.4787 54.9928 33.308C54.6942 33.116 54.5448 32.8493 54.5448 32.508V12.38C54.5448 11.5267 54.9395 11.1 55.7288 11.1H62.3208C64.9235 11.1 66.8755 11.6867 68.1768 12.86C69.4995 14.0333 70.1608 15.7933 70.1608 18.14C70.1608 20.4653 69.4995 22.2253 68.1768 23.42C66.8755 24.5933 64.9235 25.18 62.3208 25.18H59.5048V32.508C59.5048 32.8493 59.3555 33.116 59.0568 33.308C58.7582 33.4787 58.2675 33.564 57.5848 33.564H56.4648ZM59.5048 20.988H62.3208C63.3022 20.988 64.0062 20.764 64.4328 20.316C64.8808 19.868 65.1048 19.1427 65.1048 18.14C65.1048 17.1373 64.8808 16.412 64.4328 15.964C64.0062 15.516 63.3022 15.292 62.3208 15.292H59.5048V20.988ZM82.4268 33.756C79.1415 33.756 76.6028 32.7747 74.8108 30.812C73.0402 28.828 72.1548 25.9907 72.1548 22.3C72.1548 18.6093 73.0402 15.7827 74.8108 13.82C76.6028 11.836 79.1415 10.844 82.4268 10.844C85.7335 10.844 88.2615 11.836 90.0108 13.82C91.7815 15.7827 92.6668 18.6093 92.6668 22.3C92.6668 25.9907 91.7815 28.828 90.0108 30.812C88.2615 32.7747 85.7335 33.756 82.4268 33.756ZM82.4268 29.564C84.1335 29.564 85.4242 28.956 86.2988 27.74C87.1735 26.5027 87.6108 24.6893 87.6108 22.3C87.6108 19.8893 87.1735 18.076 86.2988 16.86C85.4242 15.644 84.1335 15.036 82.4268 15.036C80.7202 15.036 79.4188 15.644 78.5228 16.86C77.6482 18.076 77.2108 19.8893 77.2108 22.3C77.2108 24.6893 77.6482 26.5027 78.5228 27.74C79.4188 28.956 80.7202 29.564 82.4268 29.564ZM106.089 33.756C102.505 33.756 99.8491 32.828 98.1211 30.972C96.4144 29.0947 95.5611 26.1827 95.5611 22.236C95.5611 18.4173 96.4571 15.5693 98.2491 13.692C100.041 11.7933 102.708 10.844 106.249 10.844C106.932 10.844 107.636 10.8973 108.361 11.004C109.108 11.0893 109.812 11.228 110.473 11.42C111.134 11.5907 111.678 11.804 112.105 12.06C112.361 12.2093 112.564 12.3693 112.713 12.54C112.862 12.7107 112.937 12.892 112.937 13.084C112.937 13.2973 112.884 13.5747 112.777 13.916C112.692 14.236 112.574 14.556 112.425 14.876C112.276 15.196 112.105 15.4627 111.913 15.676C111.721 15.8893 111.529 15.996 111.337 15.996C111.081 15.996 110.718 15.9213 110.249 15.772C109.78 15.6013 109.204 15.4413 108.521 15.292C107.86 15.1427 107.07 15.068 106.153 15.068C104.894 15.068 103.849 15.3347 103.017 15.868C102.206 16.4013 101.598 17.2013 101.193 18.268C100.809 19.3347 100.617 20.668 100.617 22.268C100.617 23.868 100.82 25.212 101.225 26.3C101.63 27.3667 102.238 28.1773 103.049 28.732C103.86 29.2867 104.873 29.564 106.089 29.564C106.857 29.564 107.55 29.5 108.169 29.372C108.788 29.244 109.332 29.0947 109.801 28.924C110.27 28.7533 110.665 28.604 110.985 28.476C111.305 28.348 111.54 28.284 111.689 28.284C111.945 28.284 112.169 28.4013 112.361 28.636C112.553 28.8707 112.713 29.148 112.841 29.468C112.969 29.788 113.065 30.108 113.129 30.428C113.193 30.7267 113.225 30.94 113.225 31.068C113.225 31.4307 113.14 31.6973 112.969 31.868C112.798 32.0387 112.468 32.2627 111.977 32.54C111.465 32.8173 110.857 33.052 110.153 33.244C109.47 33.4147 108.766 33.5427 108.041 33.628C107.337 33.7133 106.686 33.756 106.089 33.756ZM117.934 33.564C117.272 33.564 116.782 33.4787 116.462 33.308C116.163 33.116 116.014 32.8493 116.014 32.508V12.092C116.014 11.7507 116.163 11.4947 116.462 11.324C116.782 11.132 117.272 11.036 117.934 11.036H119.054C119.736 11.036 120.227 11.132 120.526 11.324C120.824 11.4947 120.974 11.7507 120.974 12.092V20.668H121.102L126.51 11.868C126.702 11.548 126.968 11.3347 127.31 11.228C127.651 11.1 128.184 11.036 128.91 11.036H129.774C130.52 11.036 131.032 11.0893 131.31 11.196C131.608 11.2813 131.758 11.4413 131.758 11.676C131.758 11.7613 131.736 11.868 131.694 11.996C131.651 12.124 131.576 12.2627 131.47 12.412L124.494 23.356V20.732L131.982 31.964C132.131 32.1773 132.227 32.3693 132.27 32.54C132.334 32.6893 132.366 32.8173 132.366 32.924C132.366 33.18 132.206 33.3507 131.886 33.436C131.587 33.5213 131.096 33.564 130.414 33.564H129.39C128.643 33.564 128.099 33.5 127.758 33.372C127.416 33.244 127.15 33.0307 126.958 32.732L121.102 23.868H120.974V32.508C120.974 32.8493 120.824 33.116 120.526 33.308C120.227 33.4787 119.736 33.564 119.054 33.564H117.934ZM135.635 33.5C134.846 33.5 134.451 33.0733 134.451 32.22V12.38C134.451 11.5267 134.846 11.1 135.635 11.1H147.059C147.699 11.1 148.019 11.6333 148.019 12.7V13.692C148.019 14.7587 147.699 15.292 147.059 15.292H139.411V19.932H146.227C146.846 19.932 147.155 20.4653 147.155 21.532V22.524C147.155 23.5907 146.846 24.124 146.227 24.124H139.411V29.308H147.091C147.731 29.308 148.051 29.8413 148.051 30.908V31.9C148.051 32.9667 147.731 33.5 147.091 33.5H135.635ZM158.064 33.564C157.403 33.564 156.912 33.4787 156.592 33.308C156.293 33.1373 156.144 32.8813 156.144 32.54V15.292H151.056C150.416 15.292 150.096 14.7587 150.096 13.692V12.7C150.096 11.6333 150.416 11.1 151.056 11.1H166.192C166.832 11.1 167.152 11.6333 167.152 12.7V13.692C167.152 14.7587 166.832 15.292 166.192 15.292H161.104V32.54C161.104 32.8813 160.955 33.1373 160.656 33.308C160.357 33.4787 159.867 33.564 159.184 33.564H158.064Z" fill="white"/>
</svg>
