<svg width="100" height="100" viewBox="0 0 100 100" fill="none" xmlns="http://www.w3.org/2000/svg">
<path fill-rule="evenodd" clip-rule="evenodd" d="M50.0007 11.4585C39.7788 11.4585 29.9756 15.5191 22.7476 22.7471C15.5197 29.9751 11.459 39.7783 11.459 50.0002C11.459 56.171 12.909 61.996 15.4799 67.1585C16.5132 69.2335 16.909 71.7085 16.259 74.146L13.7757 83.4168C13.6714 83.8052 13.6712 84.2143 13.7751 84.6028C13.8789 84.9913 14.0832 85.3456 14.3673 85.6302C14.6515 85.9148 15.0056 86.1196 15.3939 86.224C15.7823 86.3285 16.1913 86.3289 16.5799 86.2252L25.859 83.7418C28.2039 83.1405 30.6877 83.4176 32.8424 84.521C38.1719 87.1756 44.0466 88.5523 50.0007 88.5418C60.2226 88.5418 70.0258 84.4812 77.2538 77.2532C84.4817 70.0253 88.5424 60.2221 88.5424 50.0002C88.5424 39.7783 84.4817 29.9751 77.2538 22.7471C70.0258 15.5191 60.2226 11.4585 50.0007 11.4585ZM5.20903 50.0002C5.20903 25.2627 25.2632 5.2085 50.0007 5.2085C74.7382 5.2085 94.7924 25.2627 94.7924 50.0002C94.7924 74.7377 74.7382 94.7918 50.0007 94.7918C42.8424 94.7918 36.0674 93.1085 30.0549 90.1168C29.2612 89.7006 28.3448 89.5824 27.4715 89.7835L18.1965 92.2627C11.8465 93.9627 6.0382 88.1543 7.7382 81.8043L10.2215 72.5293C10.4227 71.6561 10.3044 70.7396 9.88819 69.946C6.80129 63.7508 5.19928 56.9219 5.20903 50.0002ZM50.0007 30.2085C50.8295 30.2085 51.6243 30.5377 52.2104 31.1238C52.7965 31.7098 53.1257 32.5047 53.1257 33.3335V66.6668C53.1257 67.4956 52.7965 68.2905 52.2104 68.8765C51.6243 69.4626 50.8295 69.7918 50.0007 69.7918C49.1719 69.7918 48.377 69.4626 47.791 68.8765C47.2049 68.2905 46.8757 67.4956 46.8757 66.6668V33.3335C46.8757 32.5047 47.2049 31.7098 47.791 31.1238C48.377 30.5377 49.1719 30.2085 50.0007 30.2085ZM33.334 38.5418C34.1628 38.5418 34.9577 38.8711 35.5437 39.4571C36.1298 40.0432 36.459 40.838 36.459 41.6668V58.3335C36.459 59.1623 36.1298 59.9572 35.5437 60.5432C34.9577 61.1293 34.1628 61.4585 33.334 61.4585C32.5052 61.4585 31.7104 61.1293 31.1243 60.5432C30.5383 59.9572 30.209 59.1623 30.209 58.3335V41.6668C30.209 40.838 30.5383 40.0432 31.1243 39.4571C31.7104 38.8711 32.5052 38.5418 33.334 38.5418ZM66.6674 38.5418C67.4962 38.5418 68.291 38.8711 68.8771 39.4571C69.4631 40.0432 69.7924 40.838 69.7924 41.6668V58.3335C69.7924 59.1623 69.4631 59.9572 68.8771 60.5432C68.291 61.1293 67.4962 61.4585 66.6674 61.4585C65.8386 61.4585 65.0437 61.1293 64.4577 60.5432C63.8716 59.9572 63.5424 59.1623 63.5424 58.3335V41.6668C63.5424 40.838 63.8716 40.0432 64.4577 39.4571C65.0437 38.8711 65.8386 38.5418 66.6674 38.5418Z" fill="currentColor"/>
</svg>
