<svg width="61" height="61" viewBox="0 0 61 61" fill="none" xmlns="http://www.w3.org/2000/svg">
<path d="M44.9608 28.5937H9.53125C9.02568 28.5937 8.54082 28.7946 8.18333 29.152C7.82584 29.5095 7.625 29.9944 7.625 30.5C7.625 31.0055 7.82584 31.4904 8.18333 31.8479C8.54082 32.2054 9.02568 32.4062 9.53125 32.4062H44.9608L31.0566 46.3066C30.6987 46.6645 30.4976 47.15 30.4976 47.6562C30.4976 48.1624 30.6987 48.6479 31.0566 49.0058C31.4146 49.3638 31.9 49.5649 32.4063 49.5649C32.9125 49.5649 33.3979 49.3638 33.7559 49.0058L50.9121 31.8496C51.0896 31.6725 51.2305 31.4622 51.3266 31.2306C51.4227 30.999 51.4722 30.7507 51.4722 30.5C51.4722 30.2492 51.4227 30.001 51.3266 29.7694C51.2305 29.5378 51.0896 29.3274 50.9121 29.1503L33.7559 11.9941C33.3979 11.6361 32.9125 11.4351 32.4063 11.4351C31.9 11.4351 31.4146 11.6361 31.0566 11.9941C30.6987 12.352 30.4976 12.8375 30.4976 13.3437C30.4976 13.8499 30.6987 14.3354 31.0566 14.6933L44.9608 28.5937Z" fill="currentColor"/>
</svg>
